<svg id="eUbxc2KBHAG1" xmlns="http://www.w3.org/2000/svg" xmlns:xlink="http://www.w3.org/1999/xlink" viewBox="0 0 455 256" shape-rendering="geometricPrecision" text-rendering="geometricPrecision" project-id="7040e5ad83da44d28291520f8bd8bf8f" export-id="4c07d8bf42a54b2a8f50f4a477fc69e4" cached="false">
<style><![CDATA[
#eUbxc2KBHAG10_to {animation: eUbxc2KBHAG10_to__to 4000ms linear infinite normal forwards}@keyframes eUbxc2KBHAG10_to__to { 0% {transform: translate(562.451659px,9.317477px);animation-timing-function: cubic-bezier(0.42,0,0.58,1)} 50% {transform: translate(521.864915px,9.317414px);animation-timing-function: cubic-bezier(0.42,0,0.58,1)} 100% {transform: translate(562.451659px,9.317477px)}} #eUbxc2KBHAG11_to {animation: eUbxc2KBHAG11_to__to 4000ms linear infinite normal forwards}@keyframes eUbxc2KBHAG11_to__to { 0% {transform: translate(778.945551px,21.607485px)} 57.5% {transform: translate(806.864911px,21.607454px)} 100% {transform: translate(778.945551px,21.607485px)}} #eUbxc2KBHAG12_to {animation: eUbxc2KBHAG12_to__to 4000ms linear infinite normal forwards}@keyframes eUbxc2KBHAG12_to__to { 0% {transform: translate(589.954996px,-52.830984px);animation-timing-function: cubic-bezier(0.42,0,0.58,1)} 60% {transform: translate(637.781425px,-52.831047px);animation-timing-function: cubic-bezier(0.42,0,0.58,1)} 100% {transform: translate(589.439707px,-52.830984px)}} #eUbxc2KBHAG13_to {animation: eUbxc2KBHAG13_to__to 4000ms linear infinite normal forwards}@keyframes eUbxc2KBHAG13_to__to { 0% {transform: translate(230.26124px,42.040123px);animation-timing-function: cubic-bezier(0.382302,0,0.894646,0.823595)} 51.5% {transform: translate(274.356006px,42.04008px);animation-timing-function: cubic-bezier(0.65076,0.641038,1,1)} 52.5% {transform: translate(275.636183px,42.040079px);animation-timing-function: cubic-bezier(0.42,0,1,1)} 100% {transform: translate(230.776528px,42.040123px)}} #eUbxc2KBHAG18_ts {animation: eUbxc2KBHAG18_ts__ts 4000ms linear infinite normal forwards}@keyframes eUbxc2KBHAG18_ts__ts { 0% {transform: translate(227.5px,169.75px) scale(1,1)} 52% {transform: translate(227.5px,169.75px) scale(0.5,0.5)} 100% {transform: translate(227.5px,169.75px) scale(1,1)}}
]]></style>
<path d="M88.940698,237.042395c-.645567-33.140293-9.037246-59.697494-19.647416-62.178308s-20.176425,19.877561-22.397446,52.347599c-4.17191-4.742808-8.838797-2.121739-12.218951,6.862543s-4.951754,22.944805-4.114799,36.55176c.1551,2.3714.826457,4.068421,1.60205,4.049582h66.543249c.447953.003928.876653-.567965,1.18526-1.58116s.469877-2.378245.445878-3.774062c-.181238-10.375307-1.713925-32.277954-11.397825-32.277954Z" transform="translate(17.665026-18.645492)" fill="#2a9d8f" stroke="#000"/><g><rect width="80" height="80" rx="0" ry="0" transform="translate(97.5 176)" fill="#e9c46a" stroke="#000"/><rect width="50" height="46" rx="0" ry="0" transform="translate(111.219823 187)" fill="#98d5f4" stroke="#000"/><line x1="0" y1="-23" x2="0" y2="23" transform="translate(136.219823 210)" fill="none" stroke="#000"/><line x1="-25" y1="0" x2="25" y2="0" transform="translate(137.5 210)" fill="none" stroke="#000"/></g><ellipse rx="17.5" ry="17.5" transform="translate(234.347826 46.619825)" fill="#e9c46a" stroke="#000"/><g transform="translate(-442.012952-75.039706)"><g id="eUbxc2KBHAG10_to" transform="translate(562.451659,9.317477)"><path d="M99.110816,112.531384c-1.408505.001042-2.808325.220589-4.149535.650809-3.644714-11.178819-14.200149-18.634402-25.952905-18.331221s-21.909848,8.293076-24.97349,19.644949c-.463019-.068658-.930247-.10507-1.398312-.108973-5.193729,0-9.833582,4.192425-9.987941,10.152631-.010611.33756.115455.665115.349634.908439s.556641.381818.894319.384099h77.512478c.359322-.002019.700397-.158591.936195-.429762s.343509-.630714.295651-.986884c-.882233-6.797862-6.672053-11.884824-13.526094-11.884087Z" transform="translate(0,0)" fill="#fff" stroke="#000"/></g><g id="eUbxc2KBHAG11_to" transform="translate(778.945551,21.607485)"><path d="M65.879427,103.683892c-.704252.000521-1.404162.110259-2.074767.3253-1.822357-5.587604-7.100075-9.31419-12.976454-9.162649s-10.954924,4.145198-12.486745,9.819301c-.23151-.034318-.465124-.052518-.699157-.054469-2.596864,0-4.916791,2.095535-4.99397,5.074675-.005306.168725.057727.33245.174817.454073s.27832.190847.447159.191987h38.756242c.179661-.001009.350198-.07927.468097-.214812s.171755-.315255.147826-.493282c-.441117-3.397833-3.336027-5.940492-6.763048-5.940124Z" transform="translate(0,0)" fill="#fff" stroke="#000"/></g><g id="eUbxc2KBHAG12_to" transform="translate(589.954996,-52.830984)"><path d="M143.283934,194.703115c-6.460432-17.639128-24.643369-28.102589-43.139981-24.825114s-31.977429,19.351536-31.983953,38.136565c.000593,1.466736.085419,2.932227.254057,4.389236.150981,1.307765,1.257567,2.295084,2.573997,2.296576h94.204938c1.134697.014809,2.141616-.724701,2.467026-1.811855c2.757853-9.918402-5.415422-25.295769-24.376084-18.185408Z" transform="translate(0,0)" fill="#fff" stroke="#000"/></g></g><g id="eUbxc2KBHAG13_to" transform="translate(230.26124,42.040123)"><g transform="translate(-201.955305,-185.430107)"><path d="M88.940698,194.665284c-.645567-10.621595-9.037246-19.133283-19.647416-19.928394s-20.176425,6.370837-22.397446,16.777613c-4.17191-1.520089-8.838797-.680026-12.218951,2.199472s-4.951754,7.353901-4.114799,11.714984c.1551.760043.826457,1.303945,1.60205,1.297907h66.543249c.447953.001259.876653-.182035,1.18526-.506768s.469877-.762237.445878-1.209602c-.181238-3.325327-1.713925-10.345212-11.397825-10.345212Z" transform="translate(-36.52174 39.51805)" fill="#fff" stroke="#000"/></g></g><rect width="100" height="120" rx="0" ry="0" transform="translate(177.5 136)" fill="#fff" stroke="#000"/><rect width="120" height="80" rx="0" ry="0" transform="translate(277.5 176)" fill="#264653" stroke="#000"/><circle r="21.25" transform="translate(227.5 169.75)" fill="#2a9d8f" stroke="#000"/><g id="eUbxc2KBHAG18_ts" transform="translate(227.5,169.75) scale(1,1)"><path d="M48.5,38.5c-8.72381,3.466667-11.533333,6.27619-15,15-3.466667-8.72381-6.27619-11.533333-15-15c8.72381-3.466667,11.533333-6.27619,15-15c3.466667,8.72381,6.27619,11.533333,15,15Z" transform="translate(-33.5,-38.5)" fill="#e9c46a" stroke="#000"/></g><rect width="30" height="46" rx="0" ry="0" transform="translate(212.5 210)" fill="#e76f51" stroke="#000"/><circle r="4.454218" transform="translate(227.5 220.454218)" fill="#e9c46a" stroke="#000"/><g><rect width="20" height="20" rx="0" ry="0" transform="translate(285.41936 184.75)" fill="#e9c46a" stroke="#000"/><rect width="20" height="20" rx="0" ry="0" transform="translate(341.215767 185.265289)" fill="#e9c46a" stroke="#000"/><rect width="20" height="20" rx="0" ry="0" transform="translate(369.58064 184.75)" fill="#e9c46a" stroke="#000"/><rect width="20" height="20" rx="0" ry="0" transform="translate(369.58064 213)" fill="#e9c46a" stroke="#000"/><rect width="20" height="20" rx="0" ry="0" transform="translate(341.731056 213)" fill="#e9c46a" stroke="#000"/><rect width="20" height="20" rx="0" ry="0" transform="translate(313.413186 185.265289)" fill="#e9c46a" stroke="#000"/><rect width="20" height="20" rx="0" ry="0" transform="translate(285.41936 213)" fill="#e9c46a" stroke="#000"/><rect width="20" height="20" rx="0" ry="0" transform="translate(313.928475 213)" fill="#e9c46a" stroke="#000"/></g><g transform="translate(367.912086 10.713658)"><path d="M88.940698,194.665284c-.645567-10.621595-9.037246-19.133283-19.647416-19.928394s-20.176425,6.370837-22.397446,16.777613c-4.17191-1.520089-8.838797-.680026-12.218951,2.199472s-4.951754,7.353901-4.114799,11.714984c.1551.760043.826457,1.303945,1.60205,1.297907h66.543249c.447953.001259.876653-.182035,1.18526-.506768s.469877-.762237.445878-1.209602c-.181238-3.325327-1.713925-10.345212-11.397825-10.345212Z" transform="translate(-36.006452 39.51805)" fill="#2a9d8f" stroke="#000"/></g><path d="M34,20.6c16.568543,0,30,29.101491,30,65s-13.431457,65-30,65Z" transform="matrix(0-1 1 0 141.9 170)" fill="#f4a261" stroke="#000"/></svg>
